<svg xmlns="http://www.w3.org/2000/svg" viewBox="0 0 210.7 322.83"><defs><style>.cls-1{fill:#b9202b;}.cls-2{fill:#e6252d;}.cls-3{fill:#d2202a;}.cls-4{fill:#d08760;}.cls-5{fill:#e8966c;}.cls-6{fill:#593211;}.cls-7{fill:#c0e8f9;}</style></defs><g id="Layer_2" data-name="Layer 2"><g id="Mug"><path class="cls-1" d="M153.51,137.29c-31.58,0-57.19,28.67-57.19,64s25.61,64,57.19,64,57.19-28.66,57.19-64S185.1,137.29,153.51,137.29Zm0,107.24c-25.26,0-45.75-14.93-45.75-43.22s20.49-43.21,45.75-43.21,45.76,14.93,45.76,43.21S178.78,244.53,153.51,244.53Z"/><path class="cls-2" d="M153.51,309c0,7.66-34.36,13.87-76.75,13.87-40,0-72.78-5.52-76.42-12.56A2.75,2.75,0,0,1,0,309c0-7.65,34.36-13.86,76.76-13.86a346.67,346.67,0,0,1,47.84,3C142.22,300.66,153.51,304.58,153.51,309Z"/><rect class="cls-2" y="93.66" width="153.51" height="215.3"/><path class="cls-3" d="M153.51,93.66V309c0,7.66-34.36,13.87-76.75,13.87-40,0-72.78-5.52-76.42-12.56L28,312.64a344.55,344.55,0,0,0,36.91,1.18,143.21,143.21,0,0,0,44.75-8c6.68-2.37,12.71-5.08,14.91-7.71,12.5-14.95,9.49-68.62,9.9-195.33v-2.28c0-1.37,0-2.75,0-4.14,0-.9,0-1.8,0-2.71q0-3.39,0-6.84V84.53C146.34,87,153.51,90.16,153.51,93.66Z"/><path class="cls-4" d="M153.51,93.66c0,3.5-7.17,6.7-19,9.13-14.07,2.9-34.72,4.73-57.74,4.73C34.36,107.52,0,101.32,0,93.66S34.36,79.8,76.76,79.8c23,0,43.69,1.83,57.76,4.73C146.34,87,153.51,90.16,153.51,93.66Z"/><path class="cls-5" d="M145.84,93.66c0,1.69-1.87,3.3-5.25,4.77-10.39,4.53-35,7.71-63.83,7.71S23.3,103,12.92,98.43C9.54,97,7.67,95.35,7.67,93.66c0-6.89,30.93-12.48,69.09-12.48S145.84,86.77,145.84,93.66Z"/><path class="cls-6" d="M140.59,98.43c-10.39,4.53-35,7.71-63.83,7.71S23.3,103,12.92,98.43C23.3,93.92,48,90.74,76.76,90.74S130.2,93.91,140.59,98.43Z"/><path class="cls-7" d="M38.72,69.34a81,81,0,0,0,4-7.31,29.63,29.63,0,0,0,2.58-7.35,15.47,15.47,0,0,0,.2-1.74c0-.28,0-.55,0-.83v-.2a1.3,1.3,0,0,0,0-.13l0-.26a3.64,3.64,0,0,0-.45-.94,6.88,6.88,0,0,0-.92-1,36.14,36.14,0,0,0-6.46-4A31.12,31.12,0,0,1,30,40.26,11.8,11.8,0,0,1,28.29,38a8.36,8.36,0,0,1-1-3,8.2,8.2,0,0,1-.07-1.55l.13-1.28A7.33,7.33,0,0,1,27.58,31c.1-.4.19-.81.31-1.2a24.89,24.89,0,0,1,4.46-8,32.46,32.46,0,0,1,6.38-6l.71.7a72.8,72.8,0,0,0-4.09,7.24A27.79,27.79,0,0,0,32.82,31a13,13,0,0,0-.14,1.73v.83a3.41,3.41,0,0,0,.1.55,3.71,3.71,0,0,0,.47,1,6.64,6.64,0,0,0,.93,1,18,18,0,0,0,2.88,2.06c1.1.68,2.3,1.32,3.53,2s2.51,1.38,3.79,2.22a19.74,19.74,0,0,1,3.84,3,11.93,11.93,0,0,1,1.71,2.27,8.71,8.71,0,0,1,1,3,11.27,11.27,0,0,1-.13,2.81,18.84,18.84,0,0,1-.59,2.41,26,26,0,0,1-4.48,8A35.14,35.14,0,0,1,39.45,70Z"/><path class="cls-7" d="M73.75,69.39c1.46-3,2.85-6.1,4-9.2a45.16,45.16,0,0,0,2.56-9.27,22.18,22.18,0,0,0,.25-2.27c0-.38,0-.74,0-1.11a8.93,8.93,0,0,0,0-1,6.29,6.29,0,0,0-1.25-3.2c-1.49-2-4.15-3.89-6.89-5.82s-5.83-4-8.2-7.58a12,12,0,0,1-2-6.22,10.43,10.43,0,0,1,.06-1.52l.13-1.42c.18-.92.32-1.86.56-2.75a37,37,0,0,1,4.28-9.81A43.5,43.5,0,0,1,73.75,0l.79.61a91,91,0,0,0-4.07,9.13A42.85,42.85,0,0,0,68,19c-.13.76-.14,1.51-.22,2.26v1.11a5.31,5.31,0,0,0,0,1,6.58,6.58,0,0,0,1.3,3.25c1.5,2.08,4.11,3.92,6.84,5.86,1.37,1,2.81,2,4.22,3.2a19.89,19.89,0,0,1,4,4.38,13.31,13.31,0,0,1,1.41,3A11.4,11.4,0,0,1,86,46.34c0,.56-.07,1-.1,1.48a13.41,13.41,0,0,1-.16,1.42c-.19.92-.32,1.85-.59,2.72a38.71,38.71,0,0,1-4.32,9.76A47,47,0,0,1,74.55,70Z"/><path class="cls-7" d="M114.4,69.34c1.45-2.42,2.87-4.84,4-7.31A29.63,29.63,0,0,0,121,54.68a15.47,15.47,0,0,0,.2-1.74c0-.28,0-.55,0-.83v-.2a.44.44,0,0,0,0-.13l0-.26a4.45,4.45,0,0,0-.45-.94,7,7,0,0,0-.93-1,36,36,0,0,0-6.45-4,31.35,31.35,0,0,1-7.65-5.28A12.19,12.19,0,0,1,104,38a8.36,8.36,0,0,1-1-3,8.22,8.22,0,0,1-.08-1.55L103,32.2a7.33,7.33,0,0,1,.23-1.24c.1-.4.19-.81.3-1.2a24.91,24.91,0,0,1,4.47-8,32.46,32.46,0,0,1,6.38-6l.71.7a71,71,0,0,0-4.1,7.24A28.11,28.11,0,0,0,108.5,31a15,15,0,0,0-.15,1.73v.83a2.58,2.58,0,0,0,.1.55,3.71,3.71,0,0,0,.47,1,6.17,6.17,0,0,0,.93,1,17.1,17.1,0,0,0,2.88,2.06c1.09.68,2.3,1.32,3.53,2s2.51,1.38,3.79,2.22a20,20,0,0,1,3.84,3,11.9,11.9,0,0,1,1.7,2.27,8.72,8.72,0,0,1,1,3,11.77,11.77,0,0,1-.13,2.81,20.68,20.68,0,0,1-.59,2.41,26.25,26.25,0,0,1-4.48,8A35.14,35.14,0,0,1,115.13,70Z"/></g></g></svg>