<svg xmlns="http://www.w3.org/2000/svg" viewBox="0 0 71.28 71.56"><defs><style>.cls-1{fill:#e1eae0;}.cls-2{fill:#cccccb;}</style></defs><g id="Layer_2" data-name="Layer 2"><g id="Layer_1-2" data-name="Layer 1"><path class="cls-1" d="M32.4,29.16A16.2,16.2,0,1,1,16.2,13,16.16,16.16,0,0,1,32.4,29.16Z"/><circle class="cls-1" cx="35.64" cy="16.2" r="16.2"/><circle class="cls-1" cx="55.08" cy="29.16" r="16.2"/><path class="cls-2" d="M11.72,16.2q-.69.21-1.35.48a13,13,0,0,0-5.79,19l-.14-2.47A20.84,20.84,0,0,1,11.72,16.2Z"/><path class="cls-2" d="M59.58,41q.69-.21,1.35-.48a13,13,0,0,0,5.79-19l.15,2.46A20.88,20.88,0,0,1,59.58,41Z"/><path class="cls-1" d="M51.47,46.92a13.51,13.51,0,0,1-11.2-11.19,13.72,13.72,0,0,0,12.91,9.6l2.38,0,2.76-19.44H13l2.76,19.43.83,0a15.15,15.15,0,0,0,14.58-9.9A20,20,0,0,1,19.6,49.4l-3.11,1.35,3,20.81h0a47.47,47.47,0,0,1,32.4,0h0l3.41-24Z"/><path class="cls-1" d="M15.92,47.54l.57,3.21,11.76-2,2.88-13.27-1.2,2.36a17.91,17.91,0,0,1-14,9.71Z"/></g></g></svg>