<svg xmlns="http://www.w3.org/2000/svg" viewBox="0 0 110.39 175.28"><defs><style>.cls-1{fill:#e0dfdf;}.cls-2{fill:#292936;}.cls-3{fill:#fcf7e0;}</style></defs><g id="Layer_2" data-name="Layer 2"><g id="Layer_1-2" data-name="Layer 1"><path d="M18.46,99.39.16,169.26a4.81,4.81,0,0,0,5.72,5.9L18,172.36a4.8,4.8,0,0,0,3.7-4.23l.8-8.51a27.75,27.75,0,0,1,3.65-11.37l3.6-6.19a16.93,16.93,0,0,0,2.28-9.25l-.41-9.36a18.7,18.7,0,0,1,1.6-8.41L38,104.46a4.8,4.8,0,0,0-3.53-6.67L24,95.88A4.81,4.81,0,0,0,18.46,99.39Z"/><path class="cls-1" d="M99.48.34c0,.14,0,.29-.07.43q1.91-.26,3.66-.42L73.59,112.92l6.78,1.78C86.64,97.79,92.76,79,98.17,58.28S107.55,18,110.39.07A82,82,0,0,0,99.48.34Z"/><path class="cls-2" d="M99.41.77A77.79,77.79,0,0,0,41.09,40.84,166.31,166.31,0,0,0,19.21,98.68l51,13.36,3.36.88L103.07.35Q101.32.52,99.41.77Z"/><circle class="cls-3" cx="11.01" cy="157.36" r="1.95"/><circle class="cls-3" cx="22.39" cy="113.92" r="1.95"/><circle class="cls-3" cx="16.45" cy="136.6" r="1.95"/></g></g></svg>