<svg xmlns="http://www.w3.org/2000/svg" viewBox="0 0 193.15 238.78"><defs><style>.cls-1,.cls-2,.cls-9{fill:none;}.cls-2{stroke:#cf3128;stroke-width:6px;}.cls-2,.cls-4,.cls-9{stroke-miterlimit:10;}.cls-3{fill:#e99a8a;}.cls-4,.cls-5{fill:#cf3128;}.cls-4{stroke:#e99a8a;}.cls-6{fill:#ebb548;}.cls-7{fill:#509242;}.cls-8{fill:#63a644;}.cls-9{stroke:#78c044;stroke-width:7px;}.cls-10{fill:#e19745;}.cls-11{fill:#f2bc60;}</style></defs><g id="Layer_2" data-name="Layer 2"><g id="Layer_1-2" data-name="Layer 1"><line class="cls-1" x1="102.44" y1="190.5" x2="102.24" y2="223.85"/><ellipse class="cls-2" cx="44.01" cy="149.29" rx="42.25" ry="37.8" transform="translate(-107.28 112.73) rotate(-59.99)"/><ellipse class="cls-3" cx="44.01" cy="149.29" rx="41.39" ry="37.04" transform="translate(-107.28 112.73) rotate(-59.99)"/><path class="cls-4" d="M20.36,155.23l19.38-2a8.09,8.09,0,0,1,6.22,2l12.79,11.4c4.41,3.93,3.2,11.72-2.34,14.92a32.71,32.71,0,0,1-13,4.27A28.07,28.07,0,0,1,13.33,166.1,8.55,8.55,0,0,1,20.36,155.23Z"/><path class="cls-4" d="M60.29,128.28c5.16-6,14-5.23,16.91,1.54a39.33,39.33,0,0,1,3.11,15.52,44.26,44.26,0,0,1-3.72,17.76c-2.65,6.09-9.92,8.24-14.36,4.25L48.71,155.19c-3.6-3.24-3.68-9.25-.17-13.32Z"/><path class="cls-5" d="M41.28,112.41a29,29,0,0,1,13.94,1.9c5.12,2.06,6.2,9.21,2.21,13.88L43.92,144a9.65,9.65,0,0,1-6.26,3.41l-3.59.37-14.76,1.52c-6.23.65-10.49-5.63-8.18-12C15.9,124,27.59,113.82,41.28,112.41Z"/><path class="cls-3" d="M32.82,145.74l1,1.56a1.51,1.51,0,0,0,.84.65l4.1,1.19a1.68,1.68,0,0,0,1.53-.36l4-3.37a1.83,1.83,0,0,0,.3-.32l2.13-2.8a1.77,1.77,0,0,0-.18-2.46l-1.44-1.14a1.62,1.62,0,0,0-2.12.19l-1,1a1.65,1.65,0,0,1-1.84.36l-.06,0a1.68,1.68,0,0,0-1.92.45L37,141.92a1.92,1.92,0,0,1-.88.53L34,143a1.91,1.91,0,0,0-.77.43h0A1.88,1.88,0,0,0,32.82,145.74Z"/><path class="cls-3" d="M36.25,152.54l-1.49,5.28a.44.44,0,0,0,.68.51l1.3-.89a1.19,1.19,0,0,1,1.29-.09l.7.4a1.86,1.86,0,0,0,1.76,0l.86-.42a1.72,1.72,0,0,1,1.4-.07l1.07.44a1.62,1.62,0,0,0,1.82-.5l1.55-1.78a.17.17,0,0,0,0-.23l-3.81-4.06"/><path class="cls-3" d="M49.36,140l3.57.6a.88.88,0,0,1,.43,1.45l-1,1.32a1.77,1.77,0,0,0-.38,1.31l.17,1.52a1.78,1.78,0,0,1-.24,1.07l-1.21,2.11a1.4,1.4,0,0,0,.06,1.56l.06.06a1.21,1.21,0,0,1-.47,1.77l-3.69,1.82-2-5.56a1.35,1.35,0,0,1,.13-1.14Z"/><path class="cls-6" d="M35.35,140.16c-1,.58-3.66-2.46-4.74-5.69a1.77,1.77,0,0,1,.74-1.85c.65-.52,1.42-1.05,2.38.16C35.81,135.4,36.32,139.58,35.35,140.16Z"/><path class="cls-6" d="M54.3,141.78c-.24-1.08,3.42-3.49,6.75-4.22a1.34,1.34,0,0,1,1.49,1,1.7,1.7,0,0,1-.89,2.45C58.58,142.84,54.54,142.86,54.3,141.78Z"/><path class="cls-6" d="M44.38,159.93c1.09-.17,2.37,3.83,2.17,7.38a1.8,1.8,0,0,1-1.33,1.48c-.77.24-1.64.44-2.06-1.11C42.26,164.32,43.31,160.09,44.38,159.93Z"/><path class="cls-6" d="M31.18,142l-4.39-1.45a.78.78,0,0,1-.49-.91l.35-1.81a.93.93,0,0,1,.92-.76l1.38.08a1.11,1.11,0,0,1,.88.51L32,141A.71.71,0,0,1,31.18,142Z"/><path class="cls-6" d="M55.12,147.05l4.63-1.59a.74.74,0,0,1,.93.4l.68,1.58a1,1,0,0,1-.39,1.15l-1.25.79a1.22,1.22,0,0,1-1,.14L55,148.32A.68.68,0,0,1,55.12,147.05Z"/><path class="cls-6" d="M40.55,161l.22,5a1,1,0,0,1-.62.93l-1.67.59a.73.73,0,0,1-1-.5l-.4-1.37a1.45,1.45,0,0,1,.14-1.11l2.12-3.72A.61.61,0,0,1,40.55,161Z"/><path class="cls-6" d="M52.93,152.58c.43-1,4-.4,5.85.4a1.91,1.91,0,0,1,1,.85,2.73,2.73,0,0,1-.68,3C57.31,158,52.36,153.92,52.93,152.58Z"/><path class="cls-6" d="M40.53,138.17c-1-.13-.89-4.08-.37-6.19a2.4,2.4,0,0,1,.66-1.27,2.25,2.25,0,0,1,2.83-.23C45,131.92,41.84,138.33,40.53,138.17Z"/><path class="cls-6" d="M35.5,161.16c.86.51-.59,4.29-1.78,6.14a2.42,2.42,0,0,1-1,1,2.1,2.1,0,0,1-2.63-.86C29.37,165.52,34.37,160.5,35.5,161.16Z"/><path class="cls-7" d="M72.45,121.65a21.64,21.64,0,0,0-14.32-9.25c2.62-9,1.57-18.8-3.67-26.49C45.34,72.54,27,70.55,13.34,81.43L82.42,182.71c9-7.37,11.33-20.48,5.26-29.38a17.39,17.39,0,0,0-12.84-7.59C77.83,137.69,77.21,128.63,72.45,121.65Z"/><path class="cls-8" d="M13.17,81.56c-13.64,11-17.28,30.83-8.12,44.25a26.12,26.12,0,0,0,22.24,11.5,25.42,25.42,0,0,0,4,17.59,21.84,21.84,0,0,0,20.5,9.46,20.62,20.62,0,0,0,3,15.57c6.1,8.95,18.43,10.25,27.52,2.91l.16-.13L13.34,81.43Z"/><line class="cls-9" x1="13.17" y1="81.56" x2="93.32" y2="199.04"/><ellipse class="cls-2" cx="69.82" cy="104.62" rx="42.25" ry="37.8" transform="translate(-55.69 112.75) rotate(-59.99)"/><ellipse class="cls-3" cx="69.82" cy="104.62" rx="41.39" ry="37.04" transform="translate(-55.69 112.75) rotate(-59.99)"/><path class="cls-4" d="M46.16,110.55l19.38-2a8,8,0,0,1,6.22,2l12.79,11.4c4.42,3.93,3.21,11.72-2.33,14.92a32.77,32.77,0,0,1-13,4.27,28,28,0,0,1-30.07-19.67A8.55,8.55,0,0,1,46.16,110.55Z"/><path class="cls-4" d="M86.09,83.6c5.17-6,14-5.23,16.92,1.54a39.51,39.51,0,0,1,3.11,15.52,44.26,44.26,0,0,1-3.73,17.76c-2.65,6.09-9.91,8.25-14.35,4.25L74.52,110.51c-3.61-3.24-3.68-9.25-.17-13.31Z"/><path class="cls-5" d="M67.08,67.73A29.06,29.06,0,0,1,81,69.63c5.12,2.06,6.21,9.21,2.22,13.89L69.73,99.33a9.63,9.63,0,0,1-6.26,3.41l-3.59.37-14.76,1.52c-6.24.65-10.49-5.63-8.19-12C41.71,79.35,53.4,69.15,67.08,67.73Z"/><path class="cls-3" d="M58.63,101.06l.95,1.56a1.43,1.43,0,0,0,.84.65l4.1,1.19a1.68,1.68,0,0,0,1.53-.36l4-3.37a1.88,1.88,0,0,0,.31-.32l2.13-2.8a1.77,1.77,0,0,0-.18-2.46L70.9,94a1.62,1.62,0,0,0-2.13.2l-1,1a1.67,1.67,0,0,1-1.84.37l-.06,0a1.66,1.66,0,0,0-1.92.44l-1.17,1.26a1.89,1.89,0,0,1-.87.53l-2.08.54a1.84,1.84,0,0,0-.77.43h0A1.87,1.87,0,0,0,58.63,101.06Z"/><path class="cls-3" d="M62.05,107.86l-1.48,5.28a.44.44,0,0,0,.68.51l1.29-.89a1.23,1.23,0,0,1,1.3-.09l.69.4a1.85,1.85,0,0,0,1.77,0l.86-.42a1.69,1.69,0,0,1,1.39-.07l1.08.44a1.61,1.61,0,0,0,1.82-.5L73,110.77a.18.18,0,0,0,0-.24l-3.82-4.06"/><path class="cls-3" d="M75.17,95.35l3.57.61a.87.87,0,0,1,.43,1.44l-1,1.32a1.83,1.83,0,0,0-.39,1.32l.17,1.51a1.76,1.76,0,0,1-.23,1.07l-1.21,2.11a1.38,1.38,0,0,0,.06,1.56l0,.06a1.2,1.2,0,0,1-.46,1.77l-3.69,1.82-2-5.56a1.39,1.39,0,0,1,.12-1.14Z"/><path class="cls-6" d="M61.16,95.48c-1,.58-3.66-2.45-4.74-5.69a1.76,1.76,0,0,1,.73-1.85c.66-.52,1.43-1,2.39.16C61.62,90.72,62.13,94.9,61.16,95.48Z"/><path class="cls-6" d="M80.11,97.11c-.24-1.09,3.41-3.5,6.75-4.23a1.35,1.35,0,0,1,1.49,1,1.71,1.71,0,0,1-.89,2.45C84.39,98.16,80.35,98.18,80.11,97.11Z"/><path class="cls-6" d="M70.19,115.25c1.08-.17,2.37,3.83,2.16,7.38A1.76,1.76,0,0,1,71,124.11c-.77.24-1.64.44-2.06-1.11C68.07,119.64,69.12,115.42,70.19,115.25Z"/><path class="cls-6" d="M57,97.35,52.6,95.9a.77.77,0,0,1-.49-.91l.34-1.8a.94.94,0,0,1,.92-.77l1.39.08a1.13,1.13,0,0,1,.88.51l2.12,3.29A.71.71,0,0,1,57,97.35Z"/><path class="cls-6" d="M80.93,102.37l4.63-1.59a.72.72,0,0,1,.92.4l.69,1.59a.94.94,0,0,1-.39,1.14l-1.25.79a1.27,1.27,0,0,1-1,.15l-3.65-1.21A.68.68,0,0,1,80.93,102.37Z"/><path class="cls-6" d="M66.35,116.27l.23,5a.94.94,0,0,1-.62.93l-1.67.59a.74.74,0,0,1-1-.5l-.39-1.37a1.41,1.41,0,0,1,.14-1.11l2.12-3.72A.6.6,0,0,1,66.35,116.27Z"/><path class="cls-6" d="M78.73,107.9c.44-1,4.06-.4,5.86.41a1.83,1.83,0,0,1,1,.84,2.71,2.71,0,0,1-.69,3C83.12,113.3,78.16,109.24,78.73,107.9Z"/><path class="cls-6" d="M66.33,93.49c-1-.13-.88-4.08-.37-6.19A2.54,2.54,0,0,1,66.63,86a2.25,2.25,0,0,1,2.83-.23C70.78,87.24,67.65,93.65,66.33,93.49Z"/><path class="cls-6" d="M61.31,116.49c.86.5-.6,4.28-1.78,6.13a2.39,2.39,0,0,1-1,1,2.09,2.09,0,0,1-2.62-.86C55.18,120.84,60.18,115.82,61.31,116.49Z"/><path class="cls-7" d="M112.65,64.68a21.64,21.64,0,0,0-14.32-9.25c2.62-9,1.57-18.8-3.67-26.49-9.12-13.37-27.5-15.36-41.13-4.48l69.09,101.28c9-7.37,11.32-20.48,5.25-29.38A17.39,17.39,0,0,0,115,88.77C118,80.72,117.41,71.66,112.65,64.68Z"/><path class="cls-8" d="M53.37,24.58c-13.64,11-17.28,30.84-8.12,44.26a26.11,26.11,0,0,0,22.23,11.5,25.49,25.49,0,0,0,4,17.59A21.86,21.86,0,0,0,92,107.39a20.62,20.62,0,0,0,3,15.57c6.11,9,18.43,10.25,27.53,2.91l.16-.13L53.53,24.46Z"/><line class="cls-9" x1="53.37" y1="24.58" x2="133.51" y2="142.07"/><ellipse class="cls-2" cx="99.03" cy="54.04" rx="42.25" ry="37.8" transform="translate(2.71 112.76) rotate(-59.99)"/><ellipse class="cls-3" cx="99.03" cy="54.04" rx="41.39" ry="37.04" transform="translate(2.71 112.76) rotate(-59.99)"/><path class="cls-4" d="M75.38,60l19.38-2a8,8,0,0,1,6.22,2l12.79,11.4c4.41,3.93,3.21,11.72-2.34,14.92a32.66,32.66,0,0,1-13,4.27A28.07,28.07,0,0,1,68.35,70.85,8.56,8.56,0,0,1,75.38,60Z"/><path class="cls-4" d="M115.31,33c5.16-6,14-5.23,16.91,1.54a39.37,39.37,0,0,1,3.12,15.52,44.26,44.26,0,0,1-3.73,17.76c-2.65,6.09-9.91,8.25-14.36,4.25L103.73,59.93c-3.6-3.24-3.68-9.25-.17-13.31Z"/><path class="cls-5" d="M96.3,17.15a29.09,29.09,0,0,1,13.94,1.9c5.12,2.06,6.21,9.21,2.21,13.89L98.94,48.75a9.58,9.58,0,0,1-6.25,3.41l-3.6.37L74.33,54.06c-6.23.64-10.49-5.64-8.18-12C70.92,28.78,82.61,18.57,96.3,17.15Z"/><path class="cls-3" d="M87.84,50.49l1,1.55a1.46,1.46,0,0,0,.84.65l4.1,1.19a1.68,1.68,0,0,0,1.53-.36l4-3.37a1.83,1.83,0,0,0,.3-.32l2.14-2.8a1.79,1.79,0,0,0-.18-2.46l-1.45-1.14a1.61,1.61,0,0,0-2.12.2l-1,1a1.65,1.65,0,0,1-1.83.37l-.07,0a1.67,1.67,0,0,0-1.92.44L92,46.66a1.92,1.92,0,0,1-.88.53L89,47.74a1.69,1.69,0,0,0-.76.42h0A1.9,1.9,0,0,0,87.84,50.49Z"/><path class="cls-3" d="M91.27,57.29l-1.49,5.27a.44.44,0,0,0,.68.51l1.3-.89a1.21,1.21,0,0,1,1.29-.09l.7.4a1.88,1.88,0,0,0,1.77,0l.85-.43a1.72,1.72,0,0,1,1.4-.07l1.07.45a1.63,1.63,0,0,0,1.82-.51l1.55-1.77a.18.18,0,0,0,0-.24L98.4,55.89"/><path class="cls-3" d="M104.39,44.77l3.57.61a.87.87,0,0,1,.43,1.44l-1,1.32a1.87,1.87,0,0,0-.38,1.32l.17,1.51a1.76,1.76,0,0,1-.23,1.07l-1.22,2.11a1.38,1.38,0,0,0,.07,1.56l0,.06a1.21,1.21,0,0,1-.47,1.77l-3.69,1.82-2-5.56a1.4,1.4,0,0,1,.13-1.14Z"/><path class="cls-6" d="M90.37,44.9c-1,.59-3.66-2.45-4.74-5.69a1.78,1.78,0,0,1,.74-1.85c.66-.52,1.42-1,2.38.16C90.83,40.14,91.34,44.32,90.37,44.9Z"/><path class="cls-6" d="M109.33,46.53c-.24-1.09,3.41-3.5,6.74-4.23a1.34,1.34,0,0,1,1.49,1,1.7,1.7,0,0,1-.88,2.45C113.6,47.58,109.56,47.6,109.33,46.53Z"/><path class="cls-6" d="M99.4,64.67c1.09-.17,2.38,3.83,2.17,7.38a1.76,1.76,0,0,1-1.32,1.48c-.78.24-1.65.44-2.07-1.11C97.28,69.06,98.34,64.84,99.4,64.67Z"/><path class="cls-6" d="M86.2,46.77l-4.39-1.45a.78.78,0,0,1-.49-.91l.35-1.8a.93.93,0,0,1,.92-.77l1.39.08a1.1,1.1,0,0,1,.87.51L87,45.72A.71.71,0,0,1,86.2,46.77Z"/><path class="cls-6" d="M110.14,51.79l4.63-1.58a.73.73,0,0,1,.93.39l.68,1.59a1,1,0,0,1-.38,1.14l-1.26.79a1.25,1.25,0,0,1-1,.15L110,53.06A.68.68,0,0,1,110.14,51.79Z"/><path class="cls-6" d="M95.57,65.69l.22,5a.94.94,0,0,1-.62.93l-1.67.59a.73.73,0,0,1-1-.5l-.4-1.37a1.46,1.46,0,0,1,.15-1.11l2.11-3.72A.61.61,0,0,1,95.57,65.69Z"/><path class="cls-6" d="M108,57.32c.43-1,4.06-.4,5.85.41a1.83,1.83,0,0,1,1,.84,2.71,2.71,0,0,1-.68,3C112.33,62.72,107.38,58.66,108,57.32Z"/><path class="cls-6" d="M95.55,42.91c-1-.13-.89-4.08-.37-6.19a2.44,2.44,0,0,1,.66-1.27,2.26,2.26,0,0,1,2.84-.23C100,36.66,96.86,43.07,95.55,42.91Z"/><path class="cls-6" d="M90.52,65.91c.86.5-.59,4.28-1.77,6.13a2.51,2.51,0,0,1-1,1,2.11,2.11,0,0,1-2.63-.86C84.39,70.26,89.39,65.25,90.52,65.91Z"/><rect class="cls-10" x="-25.5" y="75.18" width="262.04" height="88.41" rx="44.21" transform="translate(-50.64 151.04) rotate(-59.99)"/><path class="cls-11" d="M32.67,192.6h0c11.18,6.46,25,7,37.7,1.49L106,178.58c1.66-.72,1.91-3.1.41-3.87l-5.18-2.64c-13.24-6.76-29.25-6.54-43.59.61L33.45,184.76C30.26,186.35,29.8,190.94,32.67,192.6Z"/><path class="cls-11" d="M56.61,151.14h0c11.19,6.46,25,7,37.71,1.49L130,137.12c1.66-.72,1.9-3.1.4-3.86l-5.17-2.65c-13.24-6.76-29.26-6.54-43.59.61L57.4,143.3C54.21,144.89,53.75,149.49,56.61,151.14Z"/><path class="cls-11" d="M81.75,106.64h0c11.18,6.47,25,7,37.7,1.49l35.66-15.51c1.66-.72,1.9-3.1.4-3.86l-5.17-2.64c-13.24-6.77-29.25-6.54-43.59.61L82.53,98.8C79.34,100.39,78.88,105,81.75,106.64Z"/><path class="cls-11" d="M106.05,65.55h0c11.19,6.46,25,7,37.71,1.49l35.66-15.51c1.65-.72,1.9-3.1.4-3.87L174.65,45c-13.25-6.76-29.26-6.54-43.59.61L106.84,57.71C103.65,59.3,103.19,63.89,106.05,65.55Z"/></g></g></svg>