<svg xmlns="http://www.w3.org/2000/svg" viewBox="0 0 357.35 221.87"><defs><style>.cls-1{fill:#b9a461;}.cls-2{fill:none;stroke:#f5dc96;stroke-linecap:round;stroke-miterlimit:10;stroke-width:4px;}.cls-3{fill:#b9a462;}.cls-4{fill:#cbb673;}.cls-5{fill:#f5dc96;}.cls-6,.cls-7{fill:#cc3030;}.cls-7{font-size:50px;font-family:SignPainter-HouseScript, SignPainter;}.cls-8{letter-spacing:-0.01em;}.cls-9{letter-spacing:0em;}.cls-10{letter-spacing:-0.1em;}.cls-11{letter-spacing:-0.13em;}</style></defs><g id="Layer_2" data-name="Layer 2"><g id="Layer_1-2" data-name="Layer 1"><rect class="cls-1" x="85.65" y="171.03" width="35.49" height="43.04"/><rect class="cls-1" x="186.02" y="168.8" width="35.49" height="43.04"/><path class="cls-2" d="M300.37,85.56a83.32,83.32,0,0,1,20.07,6c9.49,4.17,21.72,9.55,21.56,16.72-.18,7.77-14.88,16.26-20.82,12.64-6.61-4-6.59-25.68,5.21-31.59,9.65-4.84,24.08,2.43,27.88,13.75,3.22,9.62-1.62,16.66-3.35,19.7"/><path class="cls-3" d="M126,43H109.1a3.54,3.54,0,0,1-3.54-3.54V3.54A3.54,3.54,0,0,1,109.1,0h0c11.82.67,21.14,10,20.46,20.46v19A3.55,3.55,0,0,1,126,43Z"/><rect class="cls-4" x="44.92" y="37.87" width="264.36" height="142" rx="71"/><rect class="cls-1" x="16.36" y="90.7" width="63.72" height="47.17" rx="18.69"/><rect class="cls-5" y="90.7" width="63.72" height="47.17" rx="18.69"/><rect class="cls-4" x="113.53" y="178.83" width="35.49" height="43.04"/><rect class="cls-4" x="208.96" y="178.83" width="35.49" height="43.04"/><path class="cls-4" d="M128.56,0h0A20.46,20.46,0,0,1,149,20.46v19A3.54,3.54,0,0,1,145.48,43H128.56A3.54,3.54,0,0,1,125,39.46V3.54A3.54,3.54,0,0,1,128.56,0Z"/><circle class="cls-6" cx="95.14" cy="75.97" r="8.68"/><path class="cls-6" d="M60.07,62.24a8.68,8.68,0,1,1,0,17.36"/><circle class="cls-6" cx="63.72" cy="70.92" r="8.68"/><rect class="cls-3" x="86.46" y="55.84" width="17.35" height="7.93" rx="2.58"/><rect class="cls-3" x="57.51" y="51.87" width="17.35" height="7.93" rx="2.58"/><ellipse class="cls-4" cx="18.2" cy="114.74" rx="6.34" ry="11.65"/><ellipse class="cls-4" cx="43.61" cy="114.74" rx="6.34" ry="11.65"/><text class="cls-7" transform="translate(115.7 127.09)"><tspan class="cls-8">S</tspan><tspan x="21.5" y="0">atr</tspan><tspan class="cls-9" x="69.7" y="0">i</tspan><tspan x="79.5" y="0">al</tspan><tspan class="cls-10" x="111.35" y="0">e</tspan><tspan class="cls-11" x="122.35" y="0">’</tspan><tspan x="127.35" y="0">s</tspan></text></g></g></svg>